<svg xmlns="http://www.w3.org/2000/svg" viewBox="0 0 512 512">
  <!-- App icon / maskable icon for PWA install + splashscreen.
       MDI `newspaper` (the canonical segmented-top-edge glyph —
       https://pictogrammers.com/library/mdi/icon/newspaper/) centred
       inside a square with safe-zone padding so adaptive-icon maskers
       (Android 8+) don't clip the artwork. Same glyph as the favicon
       and the top-left in-app brand so install/splash matches the
       running app. The solid background follows prefers-color-scheme
       so the icon looks native in both light and dark launchers. -->
  <style>
    .bg { fill: #0a0a0a; }
    .fg { fill: #fafafa; }
    @media (prefers-color-scheme: light) {
      .bg { fill: #fafafa; }
      .fg { fill: #0a0a0a; }
    }
  </style>
  <rect class="bg" width="512" height="512" rx="96" ry="96" />
  <!-- Newspaper glyph scaled into a 256×256 safe zone centred in the
       512×512 canvas. MDI `newspaper` path (24×24), scaled ×10.667 and
       translated by (128, 128). -->
  <g transform="translate(128 128) scale(10.6667)">
    <path
      class="fg"
      d="M20,11H4V8H20M20,15H13V13H20M20,19H13V17H20M11,19H4V13H11M20.33,4.67L18.67,3L17,4.67L15.33,3L13.67,4.67L12,3L10.33,4.67L8.67,3L7,4.67L5.33,3L3.67,4.67L2,3V19A2,2 0 0,0 4,21H20A2,2 0 0,0 22,19V3L20.33,4.67Z"
    />
  </g>
</svg>
